name rise49.5252peak65.1548fall88.8305.mot
datacolumns 19
datarows 12
range 15.89326300000000 15.91160400000000
endheader
time	ground_force1_vx	ground_force1_vy	ground_force1_vz	ground_force1_px	ground_force1_py	ground_force1_pz	ground_force2_vx	ground_force2_vy	ground_force2_vz	ground_force2_px	ground_force2_py	ground_force2_pz	ground_torque1_x	ground_torque1_y	ground_torque1_z	ground_torque2_x	ground_torque2_y	ground_torque2_z	
15.89326300000000	3.59426400000000	690.23239699999999	41.93149500000000	0.29672000000000	0.00000000000000	0.11378100000000	0.00000000000000	0.00000000000000	0.00000000000000	0.00000000000000	0.00000000000000	0.00000000000000	0.00000000000000	23.23696100000000	0.00000000000000	0.00000000000000	0.00000000000000	0.00000000000000	
15.89493500000000	3.00929800000000	689.90551000000005	41.92903200000000	0.29581800000000	0.00000000000000	0.11381100000000	0.00000000000000	0.00000000000000	0.00000000000000	0.00000000000000	0.00000000000000	0.00000000000000	0.00000000000000	23.31645800000000	0.00000000000000	0.00000000000000	0.00000000000000	0.00000000000000	
15.89660300000000	2.41412200000000	689.62058400000001	41.92679600000000	0.29491800000000	0.00000000000000	0.11383800000000	0.00000000000000	0.00000000000000	0.00000000000000	0.00000000000000	0.00000000000000	0.00000000000000	0.00000000000000	23.40043200000000	0.00000000000000	0.00000000000000	0.00000000000000	0.00000000000000	
15.89826700000000	1.80857700000000	689.37864500000001	41.92457200000000	0.29401900000000	0.00000000000000	0.11386200000000	0.00000000000000	0.00000000000000	0.00000000000000	0.00000000000000	0.00000000000000	0.00000000000000	0.00000000000000	23.48876900000000	0.00000000000000	0.00000000000000	0.00000000000000	0.00000000000000	
15.89993000000000	1.19252800000000	689.18077400000004	41.92215600000000	0.29312100000000	0.00000000000000	0.11388400000000	0.00000000000000	0.00000000000000	0.00000000000000	0.00000000000000	0.00000000000000	0.00000000000000	0.00000000000000	23.58135200000000	0.00000000000000	0.00000000000000	0.00000000000000	0.00000000000000	
15.90160100000000	0.56585600000000	689.02810399999998	41.91936000000000	0.29222200000000	0.00000000000000	0.11390400000000	0.00000000000000	0.00000000000000	0.00000000000000	0.00000000000000	0.00000000000000	0.00000000000000	0.00000000000000	23.67806600000000	0.00000000000000	0.00000000000000	0.00000000000000	0.00000000000000	
15.90326800000000	-0.07153100000000	688.92182200000002	41.91600700000000	0.29132300000000	0.00000000000000	0.11392100000000	0.00000000000000	0.00000000000000	0.00000000000000	0.00000000000000	0.00000000000000	0.00000000000000	0.00000000000000	23.77879200000000	0.00000000000000	0.00000000000000	0.00000000000000	0.00000000000000	
15.90493800000000	-0.71970700000000	688.86316399999998	41.91193700000000	0.29042200000000	0.00000000000000	0.11393600000000	0.00000000000000	0.00000000000000	0.00000000000000	0.00000000000000	0.00000000000000	0.00000000000000	0.00000000000000	23.88341400000000	0.00000000000000	0.00000000000000	0.00000000000000	0.00000000000000	
15.90660400000000	-1.37872200000000	688.85341000000005	41.90700500000000	0.28951900000000	0.00000000000000	0.11394800000000	0.00000000000000	0.00000000000000	0.00000000000000	0.00000000000000	0.00000000000000	0.00000000000000	0.00000000000000	23.99181100000000	0.00000000000000	0.00000000000000	0.00000000000000	0.00000000000000	
15.90826600000000	-2.04860100000000	688.89388799999995	41.90108100000000	0.28861300000000	0.00000000000000	0.11395800000000	0.00000000000000	0.00000000000000	0.00000000000000	0.00000000000000	0.00000000000000	0.00000000000000	0.00000000000000	24.10386500000000	0.00000000000000	0.00000000000000	0.00000000000000	0.00000000000000	
15.90993600000000	-2.72934700000000	688.98595999999998	41.89405300000000	0.28770400000000	0.00000000000000	0.11396600000000	0.00000000000000	0.00000000000000	0.00000000000000	0.00000000000000	0.00000000000000	0.00000000000000	0.00000000000000	24.21945500000000	0.00000000000000	0.00000000000000	0.00000000000000	0.00000000000000	
15.91160400000000	-3.42093800000000	689.13102600000002	41.88582500000000	0.28679000000000	0.00000000000000	0.11397200000000	0.00000000000000	0.00000000000000	0.00000000000000	0.00000000000000	0.00000000000000	0.00000000000000	0.00000000000000	24.33846100000000	0.00000000000000	0.00000000000000	0.00000000000000	0.00000000000000	
